<svg width="48" height="32" viewBox="0 0 48 32" fill="none" xmlns="http://www.w3.org/2000/svg">
<path d="M4.53332 0.484863C2.32418 0.484863 0.533325 2.27572 0.533325 4.48486V27.5152C0.533325 29.7243 2.32419 31.5152 4.53333 31.5152H15.5401C17.3772 31.5152 18.9781 30.2639 19.4217 28.4812L25.1534 5.45089C25.7815 2.92734 23.8723 0.484863 21.2718 0.484863H4.53332Z" fill="#D0112B"/>
<path d="M22.5612 0.484863C20.7241 0.484863 19.1232 1.73616 18.6796 3.51883L12.9479 26.5491C12.3198 29.0727 14.229 31.5152 16.8295 31.5152H30.4735C32.3105 31.5152 33.9114 30.2639 34.3551 28.4812L40.0867 5.4509C40.7148 2.92734 38.8057 0.484863 36.2051 0.484863H22.5612Z" fill="#002857"/>
<path d="M47.4665 4.48486C47.4665 2.27572 45.6756 0.484863 43.4665 0.484863H39.4143C37.5773 0.484863 35.9764 1.73616 35.5327 3.51883L29.801 26.5491C29.173 29.0727 31.0821 31.5152 33.6826 31.5152H43.4665C45.6756 31.5152 47.4665 29.7243 47.4665 27.5152V4.48486Z" fill="#007178"/>
<path d="M36.9064 17.0182C36.9064 17.0128 36.902 17.0085 36.8967 17.0084C36.7325 17.007 36.6504 16.9678 36.6504 16.8727V16.8727C36.6385 16.5907 36.4064 16.3683 36.1242 16.3683H35.1358C34.6664 16.3683 33.2158 16.4073 32.9171 16.4848C32.7577 16.5189 32.5983 16.5868 32.4697 16.6521C32.378 16.6986 32.2614 16.6065 32.294 16.509V16.509C32.3172 16.4398 32.2657 16.3683 32.1927 16.3683H31.4137C31.1266 16.3683 30.8717 16.5518 30.7806 16.824L30.6344 17.2606L29.203 21.5417C29.1788 21.6142 29.1109 21.663 29.0345 21.663V21.663C28.958 21.663 28.8901 21.712 28.866 21.7846L28.8115 21.9484C28.7217 22.2184 28.9227 22.497 29.2072 22.497H31.2815C31.352 22.497 31.4022 22.5654 31.3811 22.6327V22.6327C31.3599 22.7 31.4102 22.7685 31.4807 22.7685H32.5615C32.6461 22.7685 32.721 22.7135 32.7464 22.6327V22.6327C32.7718 22.5519 32.8467 22.497 32.9314 22.497H32.983C33.0965 22.497 33.1974 22.4244 33.2334 22.3167L33.4108 21.787C33.4408 21.6974 33.3741 21.6048 33.2797 21.6048V21.6048C33.1853 21.6048 33.1186 21.5123 33.1485 21.4228L34.4641 17.4833C34.5085 17.3503 34.633 17.2606 34.7732 17.2606H34.9526C34.9855 17.2606 35.0148 17.2395 35.0253 17.2083V17.2083C35.0523 17.1276 35.171 17.1443 35.1746 17.2294L35.1784 17.319C35.1571 17.6293 35.4344 17.9006 36.1171 17.8618H36.627C36.8066 17.8618 36.966 17.7468 37.0227 17.5764L37.1503 17.1925C37.1773 17.1115 37.117 17.0279 37.0316 17.0279H36.9161C36.9108 17.0279 36.9064 17.0235 36.9064 17.0182V17.0182ZM31.8323 21.2913C31.7667 21.49 31.5811 21.6242 31.3719 21.6242H31.2837C30.9533 21.6242 30.7197 21.3011 30.8232 20.9874V20.9874C30.8888 20.7888 31.0744 20.6545 31.2837 20.6545H31.3719C31.7022 20.6545 31.9358 20.9776 31.8323 21.2913V21.2913ZM32.446 19.471C32.3952 19.6363 32.2513 19.7555 32.0798 19.778C31.9833 19.7907 31.8769 19.8056 31.7864 19.8206V19.8206C31.524 19.8857 31.2624 19.6567 31.3471 19.3999L31.4168 19.1889C31.4719 19.0219 31.6279 18.9091 31.8037 18.9091H32.0307C32.3228 18.9091 32.5317 19.1917 32.446 19.471V19.471ZM32.981 17.8102C32.9296 17.9697 32.7853 18.0803 32.6189 18.1008C32.5208 18.1129 32.412 18.1298 32.3198 18.1527V18.1527C32.0628 18.2164 31.8097 17.9894 31.8922 17.7379L31.9531 17.5522C32.0064 17.3898 32.158 17.28 32.3289 17.28H32.5948C32.87 17.28 33.0654 17.5482 32.981 17.8102V17.8102Z" fill="white"/>
<path d="M34.8346 21.0222C35.0459 20.744 34.8474 20.3442 34.4981 20.3442H34.4241C34.1747 20.3442 33.9973 20.1016 34.073 19.8639V19.8639C34.1217 19.711 34.2637 19.6072 34.4241 19.6072H35.5343C35.679 19.6072 35.8078 19.5155 35.855 19.3787V19.3787C35.9312 19.1583 35.7675 18.9284 35.5343 18.9284H34.9888C34.7043 18.9284 34.5034 18.6498 34.5931 18.3799V18.3799C34.6498 18.2095 34.8092 18.0945 34.9888 18.0945H38.5899C38.8744 18.0945 39.0754 18.3731 38.9856 18.643V18.643C38.9289 18.8134 38.7695 18.9284 38.5899 18.9284H37.6391C37.4944 18.9284 37.3657 19.0202 37.3184 19.1569V19.1569C37.2422 19.3774 37.4059 19.6072 37.6391 19.6072H38.1593C38.4128 19.6072 38.5905 19.8572 38.5074 20.0966V20.0966C38.4559 20.2448 38.3162 20.3442 38.1593 20.3442H36.866C36.8239 20.3442 36.7835 20.3614 36.7543 20.3917V20.3917C36.6594 20.4903 36.7292 20.6545 36.866 20.6545H36.9896C37.0899 20.6545 37.1758 20.7261 37.1939 20.8247L37.3334 21.5854V21.5854C37.3617 21.7142 37.436 21.8141 37.5671 21.8286C37.6209 21.8345 37.6756 21.8375 37.7174 21.8375V21.8375C37.812 21.8375 37.8791 21.93 37.8496 22.02L37.7135 22.4352C37.6522 22.6224 37.4775 22.749 37.2804 22.749H37.0987C37.0134 22.749 36.9067 22.749 36.736 22.7296C36.5867 22.7102 36.48 22.6327 36.3734 22.5939C36.288 22.5551 36.1387 22.4581 36.1174 22.2836V22.2836C36.0595 21.9225 35.6023 21.7991 35.3706 22.082L35.2214 22.2642C34.9867 22.5551 34.6667 22.7878 34.1334 22.7878H33.6783C33.3992 22.7878 33.2028 22.5135 33.2927 22.2493V22.2493C33.3489 22.0842 33.5039 21.9733 33.6783 21.9733H33.792C33.8403 21.9733 33.8886 21.9653 33.9349 21.953C34.0417 21.9247 34.1579 21.8976 34.2349 21.8184C34.2475 21.8054 34.2599 21.7903 34.2721 21.7729C34.2953 21.7397 34.3163 21.705 34.3408 21.6728L34.8346 21.0222Z" fill="white"/>
<path d="M19.6308 18.5754C19.6927 18.4142 19.8475 18.3077 20.0202 18.3077H22.9405C23.2197 18.3077 23.4161 18.5821 23.3262 18.8464V18.8464C23.27 19.0115 23.1149 19.1225 22.9405 19.1225H21.9685C21.8185 19.1225 21.6853 19.2182 21.6376 19.3603V19.3603C21.5615 19.5866 21.7298 19.8207 21.9685 19.8207H22.4316C22.7214 19.8207 22.9269 20.1035 22.8373 20.3792V20.3792C22.7802 20.555 22.6164 20.674 22.4316 20.674H21.9697C21.5131 20.674 21.1077 20.9656 20.9624 21.3984L20.8215 21.8182C20.7789 21.9346 21.1842 21.9538 21.3335 21.9538L21.4255 21.9422C21.7373 21.9029 21.9822 22.2042 21.88 22.5014V22.5014C21.8211 22.6728 21.6598 22.7879 21.4786 22.7879H20.0322C19.8829 22.7879 19.7975 22.7685 19.6269 22.7298C19.4776 22.691 19.4136 22.6328 19.3496 22.5552C19.2856 22.4582 19.1789 22.3805 19.2642 22.1865L19.6214 21.0994C19.6872 20.8993 19.5381 20.6934 19.3275 20.6934V20.6934C19.1173 20.6934 18.9682 20.4882 19.0332 20.2883L19.0831 20.1348C19.1402 19.9591 19.304 19.8401 19.4889 19.8401H19.7812C19.9312 19.8401 20.0644 19.7443 20.1121 19.6022L20.134 19.5373C20.1993 19.343 20.0547 19.1419 19.8497 19.1419V19.1419C19.6394 19.1419 19.4944 18.931 19.5698 18.7346L19.6308 18.5754Z" fill="white"/>
<path d="M22.4105 16.6012C22.3493 16.7039 22.4233 16.8341 22.5429 16.8341H23.2419C23.5317 16.8341 23.7372 17.1169 23.6476 17.3926V17.3926C23.5905 17.5683 23.4267 17.6873 23.2419 17.6873H21.7323C21.5423 17.6873 21.3575 17.7485 21.2051 17.8618V17.8618C21.0985 17.9394 21.0771 17.92 20.9491 17.9782C20.8211 18.0364 20.5865 18.1333 20.2451 18.1333H20.1313C19.8523 18.1333 19.6559 17.859 19.7458 17.5949L19.771 17.5209C19.8121 17.4002 19.9256 17.319 20.0531 17.319V17.319C20.2238 17.319 20.3518 17.2994 20.3945 17.28C20.4585 17.2412 20.5438 17.1442 20.6291 17.0085L20.8207 16.6891C20.9401 16.4901 21.1551 16.3683 21.3872 16.3683H22.2781C22.3976 16.3683 22.4716 16.4985 22.4105 16.6012V16.6012Z" fill="white"/>
<path fill-rule="evenodd" clip-rule="evenodd" d="M25.5027 17.4622C25.4261 17.6896 25.7491 17.9536 25.9779 17.8815C26.1015 17.8425 26.2391 17.8084 26.3895 17.7842C26.5166 17.7698 27.1163 17.7661 27.4147 17.7652C27.5158 17.7648 27.6052 17.6995 27.6361 17.6032V17.6032C27.6842 17.453 27.5722 17.2994 27.4145 17.2994H25.7293C25.6267 17.2994 25.5355 17.3649 25.5027 17.4622V17.4622ZM27.2015 18.8535C27.2429 18.728 27.1494 18.5988 27.0173 18.5988H25.2711C25.1874 18.5988 25.1131 18.6525 25.0869 18.7319V18.7319C25.0455 18.8574 25.139 18.9867 25.2711 18.9867H26.8802C26.9374 18.9815 26.9823 18.9791 27.0179 18.9783C27.1015 18.9766 27.1752 18.933 27.2015 18.8535V18.8535ZM24.3481 16.8226C24.4333 16.5632 24.6754 16.3879 24.9484 16.3879H25.6182C25.7148 16.3879 25.7835 16.4819 25.7541 16.574V16.574C25.7121 16.7053 25.8673 16.8206 25.9859 16.7503C26.1001 16.6826 26.223 16.6177 26.3255 16.5818C26.5507 16.5087 26.97 16.4356 27.1626 16.404C27.2303 16.393 27.2986 16.3876 27.3672 16.3869V16.3869C28.3641 16.3778 29.0754 17.3503 28.7647 18.2976L28.6722 18.5794C28.5442 18.9479 28.4162 19.2 28.3095 19.3164C28.2242 19.4327 28.1389 19.5297 27.9469 19.6267C27.7762 19.7236 27.6055 19.7624 27.4562 19.7818C27.3069 19.7818 27.0935 19.8012 26.7949 19.8012H26.5849C25.4879 19.8012 24.5146 20.5049 24.1709 21.5467V21.5467C24.1069 21.7212 24.0855 21.7988 24.1282 21.857C24.1495 21.8958 24.2349 21.9347 24.3202 21.9347L24.5585 21.9145C24.8792 21.8873 25.1228 22.1977 25.0201 22.5028V22.5028C24.9588 22.6847 24.7882 22.8073 24.5963 22.8073H23.9149C23.5949 22.8073 23.3602 22.8073 23.1895 22.7879C23.0402 22.7685 22.8695 22.7879 22.7629 22.7103C22.6775 22.6327 22.5282 22.5356 22.5282 22.4386C22.5282 22.3416 22.5922 22.1867 22.6562 21.9733L24.3481 16.8226Z" fill="white"/>
<path d="M28.3309 19.9349C28.3309 19.9363 28.3307 19.9377 28.3304 19.939L28.2029 20.4606C28.1602 20.6352 28.0962 20.7515 27.9682 20.8485C27.8189 20.9649 27.6482 21.0812 27.2642 21.0812L27.1397 21.0846C26.8053 21.0935 26.5389 21.3672 26.5389 21.7017V21.7017C26.5389 21.8762 26.5816 21.857 26.6029 21.8764V21.8764C26.6519 21.9209 26.7257 21.9316 26.7916 21.9261L26.9229 21.9152L27.0053 21.9106C27.3024 21.8943 27.5217 22.1839 27.4253 22.4654V22.4654C27.3673 22.6351 27.2077 22.7491 27.0284 22.7491H26.5176C25.9629 22.7491 25.5362 22.7297 25.4082 22.6328C25.2802 22.5552 25.2589 22.4582 25.2589 22.2837L25.2902 20.5763C25.2965 20.2321 25.5774 19.9564 25.9216 19.9564H26.3389C26.4712 19.9564 26.5767 20.0667 26.5709 20.1988V20.1988C26.5651 20.3309 26.6706 20.4412 26.8029 20.4412H26.8589C26.8859 20.4412 26.9102 20.4412 26.932 20.4406C27.0304 20.4378 27.1237 20.3785 27.1576 20.2861V20.2861V20.2861C27.2342 20.0655 27.4421 19.9176 27.6757 19.9176H28.3136C28.3232 19.9176 28.3309 19.9254 28.3309 19.9349V19.9349Z" fill="white"/>
<path d="M11.7973 8.35891C10.8322 8.3143 9.89188 9.00577 9.66544 9.94498C9.5257 10.5246 9.3815 11.1225 9.29013 11.5038C9.22564 11.7728 9.16482 12.0448 9.0922 12.3117C8.95824 12.8041 8.80436 13.1737 8.44793 13.4206C8.19193 13.6145 7.9146 13.6923 7.57327 13.6923C7.06736 13.6923 6.75341 13.4653 6.66783 13.0612C6.65842 13.0168 6.65593 12.9711 6.65593 12.9257V12.9257C6.65593 12.8679 6.66118 12.8102 6.67161 12.7533L6.79633 12.073C6.8165 11.963 6.84084 11.8554 6.87032 11.7475C7.04012 11.1258 7.65521 8.88544 7.83217 8.40621C7.84382 8.37467 7.83831 8.32008 7.87193 8.32008V8.32008C6.85169 8.33182 6.33962 8.32934 6.08961 8.32125C5.97476 8.31754 5.83692 8.41777 5.82409 8.53196V8.53196C5.82321 8.53982 5.82298 8.53722 5.82108 8.5449L4.94927 12.063L4.86393 12.3539L4.75942 13.0461C4.72958 13.2438 4.70403 13.4452 4.74047 13.6418C4.77021 13.8022 4.82558 13.945 4.9066 14.08C5.31193 14.72 6.4426 14.817 7.10393 14.817C7.93593 14.817 8.72527 14.6618 9.2586 14.3709C10.1759 13.8861 10.4106 13.1103 10.6239 12.4315L10.7141 12.1362C10.7251 12.1003 10.735 12.0662 10.745 12.0301C10.8568 11.6241 11.586 8.97986 11.7598 8.44562C11.7702 8.41367 11.7637 8.35891 11.7973 8.35891V8.35891V8.35891Z" fill="white"/>
<path d="M15.0136 14.7247C14.9887 14.7344 14.9619 14.7394 14.9352 14.7394C14.3762 14.7394 14.1555 14.7399 13.5095 14.758C13.4932 14.7585 13.4776 14.7498 13.4698 14.7355V14.7355C13.4643 14.7256 13.4629 14.7139 13.4659 14.703C13.5284 14.475 13.5908 14.2295 13.6532 14.0024L13.7386 13.6728C13.8666 13.1685 13.9946 12.5673 14.0159 12.3928C14.0372 12.2764 14.0799 12.0048 13.7172 12.0048V12.0048C13.4147 12.0048 13.2205 12.3036 13.1489 12.5976C13.0699 12.9225 12.9818 13.3092 12.9279 13.5176C12.7608 14.2392 12.7369 14.3286 12.6758 14.678C12.6733 14.6928 12.6673 14.7069 12.6584 14.719V14.719C12.6401 14.744 12.6108 14.7588 12.5798 14.7588C12.0112 14.7588 11.7878 14.7593 11.1369 14.777C11.111 14.7777 11.0872 14.7618 11.0783 14.7374V14.7374C11.0741 14.7261 11.0735 14.7138 11.0764 14.702C11.1822 14.2808 11.3081 13.841 11.4132 13.4012C11.7033 12.2524 11.772 11.7986 11.8539 11.2227C11.8585 11.19 11.8776 11.161 11.9059 11.1439V11.1439C11.9187 11.1361 11.9332 11.131 11.948 11.1289C12.6001 11.0368 12.7806 11.0335 13.4867 10.888C13.5107 10.883 13.5359 10.8897 13.554 10.9062V10.9062C13.5756 10.9258 13.5841 10.956 13.576 10.9839L13.5684 11.0103C13.5379 11.1156 13.6564 11.21 13.7557 11.1636C13.7927 11.1463 13.8296 11.1295 13.8666 11.1127C14.2079 10.9576 14.6132 10.8994 14.8266 10.8994C15.1466 10.8994 15.5092 10.9769 15.6586 11.326C15.8079 11.6363 15.7012 12.0048 15.5306 12.7416L15.4452 13.1297C15.2669 13.9042 15.2358 14.0763 15.1468 14.563C15.1334 14.6362 15.083 14.6975 15.0136 14.7247V14.7247Z" fill="white"/>
<path d="M17.4078 14.7394C17.0451 14.7394 16.8104 14.7394 16.5971 14.7394C16.3696 14.7394 16.1621 14.7576 15.8579 14.7587C15.8394 14.7588 15.8215 14.7518 15.8078 14.7394V14.7394V14.7394C15.7947 14.7275 15.7894 14.7092 15.7942 14.6922C15.8756 14.4026 15.9371 14.2902 15.9784 14.1961C16.0211 14.0798 16.0638 13.983 16.1491 13.6533C16.2558 13.246 16.3198 12.9551 16.3624 12.703C16.4035 12.4605 16.4445 12.2716 16.4666 12.0333C16.4683 12.015 16.4767 11.9978 16.4904 11.9855V11.9855V11.9855C16.5043 11.9729 16.5219 11.965 16.5405 11.963C16.8858 11.9252 17.094 11.8874 17.3224 11.8497C17.5539 11.8305 17.7853 11.7738 18.1395 11.7164C18.1489 11.7149 18.1585 11.7177 18.1656 11.7241V11.7241C18.1721 11.73 18.1758 11.7384 18.1758 11.7472V11.7635C18.1758 11.7691 18.1751 11.7748 18.1737 11.7802C18.1104 12.0296 18.0468 12.2793 17.9624 12.5479C17.8984 12.8 17.8344 13.0715 17.7704 13.3236C17.6424 13.8666 17.5784 14.08 17.5571 14.2157C17.5366 14.3462 17.5161 14.4229 17.4767 14.6867C17.4736 14.7074 17.4603 14.7252 17.4412 14.7339V14.7339C17.4332 14.7375 17.4246 14.7394 17.4158 14.7394H17.4078Z" fill="white"/>
<path d="M21.184 12.8C21.1627 12.9358 21.0133 13.4596 20.8427 13.6923C20.7147 13.8475 20.5653 13.9637 20.3947 13.9637C20.352 13.9637 20.0533 13.9637 20.0533 13.5564C20.0533 13.3625 20.096 13.1685 20.1387 12.9358C20.288 12.3152 20.48 11.7721 20.9493 11.7721C21.3333 11.7915 21.3547 12.1794 21.184 12.8ZM22.7413 12.8582C22.9547 12.0243 22.784 11.6364 22.592 11.4037C22.272 11.0352 21.7387 10.9188 21.1627 10.9188C20.8213 10.9188 20.0107 10.9577 19.3706 11.4813C18.9226 11.8692 18.7092 12.3928 18.5812 12.8776C18.4532 13.3819 18.3039 14.3128 19.2426 14.6425C19.5199 14.7588 19.9467 14.7782 20.2027 14.7782C20.8853 14.7782 21.568 14.6037 22.1013 14.0994C22.5067 13.7309 22.6773 13.1103 22.7413 12.8582Z" fill="white"/>
<path d="M38.2291 11.0632C38.2291 11.0179 38.1884 10.9834 38.1437 10.9904C37.4732 11.0955 37.266 11.1352 36.5855 11.2265C36.5723 11.2282 36.5592 11.2328 36.5478 11.2397L36.5194 11.2569C36.508 11.2638 36.5012 11.2786 36.5 11.2918V11.2918C36.4967 11.3301 36.4252 11.3429 36.4002 11.3138C36.295 11.1916 36.1509 11.0956 35.9678 11.0351C35.6478 10.9187 34.9011 11.0739 34.2611 11.5976C33.8131 11.9854 33.5998 12.4897 33.4718 12.994C33.3438 13.4982 33.1944 14.4097 34.1118 14.7394C34.4104 14.8558 34.6664 14.8946 34.9438 14.8752C35.156 14.8603 35.3683 14.7773 35.5615 14.6609C35.6195 14.6259 35.6962 14.6797 35.6782 14.745V14.745C35.6725 14.766 35.6766 14.7885 35.6895 14.806V14.806C35.7034 14.825 35.7261 14.836 35.7496 14.8353C36.3725 14.8173 36.5937 14.817 37.2612 14.817C37.2801 14.817 37.299 14.8118 37.3151 14.802V14.802C37.3401 14.7869 37.3575 14.7618 37.363 14.733C37.4669 14.1863 37.5746 13.6442 37.8238 12.6061C37.9509 12.086 38.078 11.585 38.2261 11.0841C38.2281 11.0773 38.2291 11.0703 38.2291 11.0632V11.0632ZM35.8611 13.7697C35.7331 13.9249 35.4558 14.0218 35.2851 14.0218C35.2424 14.0218 34.9438 14.0218 34.9438 13.634C34.9438 13.44 34.9864 13.2461 35.0504 13.0134C35.1998 12.3927 35.3918 11.8691 35.8611 11.8691C36.1598 11.8691 36.3091 12.1406 36.2664 12.5867C36.2451 12.6837 36.2238 12.7806 36.2024 12.897C36.1866 12.9688 36.1679 13.038 36.1484 13.1064C36.082 13.3396 36.0154 13.5827 35.8611 13.7697V13.7697Z" fill="white"/>
<path d="M26.8522 14.7196C26.8285 14.7326 26.8016 14.7394 26.7746 14.7394C26.2161 14.7394 25.9953 14.7399 25.3496 14.758C25.3333 14.7585 25.3177 14.7498 25.3099 14.7355V14.7355C25.3044 14.7256 25.303 14.7139 25.306 14.703C25.3685 14.475 25.4309 14.2295 25.4933 14.0024L25.5787 13.6728C25.7067 13.1685 25.8347 12.5673 25.856 12.3928C25.8773 12.2764 25.92 12.0048 25.5787 12.0048V12.0048C25.2761 12.0048 25.0819 12.3036 25.0104 12.5976C24.9313 12.9225 24.8433 13.3092 24.7893 13.5176C24.6219 14.2407 24.6187 14.329 24.5381 14.6802C24.535 14.6935 24.5292 14.7063 24.521 14.7174V14.7174C24.502 14.7434 24.4715 14.7588 24.4392 14.7588C23.8721 14.7588 23.6485 14.7593 22.9984 14.777C22.9725 14.7777 22.9487 14.7618 22.9397 14.7374V14.7374C22.9356 14.7261 22.9349 14.7138 22.9379 14.702C23.0436 14.2808 23.1695 13.841 23.2747 13.4012C23.5682 12.2386 23.6351 11.7877 23.7183 11.2019C23.7211 11.1819 23.7308 11.1635 23.7457 11.15V11.15C23.7585 11.1384 23.7749 11.1308 23.792 11.1283C24.4409 11.0368 24.6221 11.0332 25.3268 10.888C25.3508 10.883 25.3761 10.8897 25.3942 10.9062V10.9062C25.4157 10.9258 25.4242 10.956 25.4161 10.9839L25.4085 11.0103C25.378 11.1156 25.4966 11.2103 25.5943 11.1604C25.6259 11.1443 25.6564 11.1285 25.6853 11.1127C26.0267 10.9576 26.432 10.8994 26.6453 10.8994C26.9653 10.8994 27.328 10.9769 27.4774 11.326C27.6054 11.6363 27.52 12.0048 27.328 12.7416L27.2427 13.1297C27.0598 13.9242 27.0124 14.0848 26.9345 14.6013C26.927 14.6513 26.8966 14.6953 26.8522 14.7196V14.7196Z" fill="white"/>
<path d="M31.9787 8.24244H31.488C30.5375 8.25684 29.9987 8.26053 29.7057 8.2456C29.5794 8.23916 29.4576 8.3293 29.4402 8.45456V8.45456C29.439 8.46257 29.439 8.45969 29.4371 8.46755L28.9809 10.3527C28.9741 10.381 28.9672 10.408 28.9597 10.4361C28.8807 10.7301 28.3944 12.542 28.0823 13.7154C27.9459 14.2281 28.66 14.7021 29.1905 14.7059V14.7059C29.6074 14.7089 29.6569 14.4129 29.7465 14.0058C29.8079 13.7265 29.867 13.4579 29.8835 13.383C29.8866 13.3688 29.8898 13.3554 29.8933 13.3413C29.9191 13.2383 30.033 12.7862 30.0907 12.5856C30.1094 12.5207 30.1211 12.4813 30.1697 12.4344V12.4344C30.2134 12.3922 30.3026 12.3733 30.3634 12.3733H30.3787C31.3387 12.3733 32.448 12.3733 33.3013 11.7914C33.8773 11.4036 34.2827 10.8218 34.4533 10.1042C34.496 9.92963 34.5387 9.71643 34.5387 9.52249C34.5387 9.25098 34.4747 8.97944 34.304 8.76611C33.856 8.26187 32.9813 8.26183 31.9787 8.24244ZM32.6187 10.2789C32.512 10.7056 32.2133 11.074 31.808 11.2486C31.488 11.4037 31.0827 11.4036 30.6773 11.4036H30.4994C30.4483 11.4036 30.4104 11.3564 30.4213 11.3066V11.3066L30.912 9.36721L30.9318 9.27717C30.9328 9.27265 30.9333 9.26804 30.9333 9.26342V9.26342C30.9333 9.22558 30.966 9.19603 31.0037 9.19983L31.1233 9.21193C31.1247 9.21206 31.1254 9.21214 31.1268 9.21224C31.141 9.21334 31.2598 9.22255 31.4119 9.23425C31.8992 9.27178 32.5187 9.33492 32.6282 9.8113C32.6595 9.94782 32.657 10.1046 32.6187 10.2789Z" fill="white"/>
<path d="M18.048 11.4035C18.432 11.1514 18.496 10.8022 18.1546 10.6277C17.8133 10.4531 17.2373 10.5114 16.832 10.7442C16.4266 10.9963 16.384 11.3258 16.7253 11.5197C17.0666 11.7137 17.664 11.6556 18.048 11.4035Z" fill="white"/>
<path d="M43.1502 11.002C43.1672 10.9755 43.1616 10.9421 43.1382 10.9209V10.9209C43.1232 10.9074 43.1024 10.9017 43.0826 10.9054C42.3934 11.0341 42.2342 11.0552 41.6031 11.1293C41.5874 11.1311 41.5724 11.1378 41.5607 11.1484L41.5502 11.1579C41.541 11.1662 41.5358 11.178 41.5358 11.1904V11.1904V11.1904C41.5358 11.1856 41.5291 11.1846 41.527 11.1889C41.0429 12.1773 41.0421 12.0233 40.6834 12.7325C40.6725 12.7539 40.6398 12.7467 40.6398 12.7226V12.7226L40.5357 10.9581C40.5342 10.9329 40.5229 10.9093 40.5042 10.8924V10.8924C40.4821 10.8723 40.4515 10.8637 40.4221 10.8689C39.7075 10.9958 39.6662 11.0169 38.9974 11.0909C38.9836 11.0925 38.9699 11.097 38.958 11.1043L38.9541 11.1066C38.928 11.1224 38.9159 11.1422 38.9072 11.1715V11.1715C38.9012 11.1916 38.8929 11.2212 38.8971 11.2417C38.9747 11.6134 38.9568 11.5567 39.0398 12.1794C39.0825 12.4897 39.1467 12.8194 39.1893 13.1297C39.1967 13.19 39.2038 13.2469 39.2107 13.3016C39.3261 14.2183 39.1236 15.1545 38.6199 15.929C38.5382 16.0548 38.4468 16.1907 38.3358 16.3493L38.016 16.8146C37.9733 16.8728 37.952 16.8922 37.888 16.9115C37.8453 16.9309 37.76 16.9309 37.6747 16.9309V16.9309C37.5726 16.9309 37.4819 16.9959 37.449 17.0925L37.4087 17.211C37.3186 17.4756 37.5117 17.7515 37.7912 17.7574L38.1438 17.7649C38.6771 17.7649 39.0185 17.5321 39.2105 17.2218L39.7669 16.3604C39.78 16.34 39.7958 16.3215 39.8137 16.3052V16.3052C39.8382 16.2829 39.8569 16.2593 39.8727 16.2303C40.2925 15.4575 42.8513 11.4677 43.1502 11.002Z" fill="white"/>
</svg>
