<svg width="47" height="32" viewBox="0 0 47 32" fill="none" xmlns="http://www.w3.org/2000/svg">
<g id="elo">
<path id="Vector" d="M10.5568 10.8519C10.7861 11.4772 11.4666 11.7887 12.1325 11.7731C12.1629 11.7724 12.1934 11.772 12.224 11.772C13.6427 11.772 14.875 12.4497 15.5767 13.4608C15.9931 14.0607 16.6698 14.5407 17.3884 14.4111V14.4111C18.1559 14.2727 18.666 13.5115 18.3133 12.816C17.2508 10.7203 14.922 9.27026 12.224 9.27026C11.9495 9.27026 11.6809 9.28598 11.4169 9.3155C10.6905 9.39671 10.3052 10.1656 10.5568 10.8519V10.8519Z" fill="#FFCB05"/>
<path id="Vector_2" d="M6.91638 19.1296C7.35282 19.6408 8.12472 19.5878 8.59402 19.1066V19.1066C9.1322 18.5548 9.04367 17.6602 8.67181 16.9849C8.40474 16.5 8.25621 15.9536 8.25621 15.3791C8.25621 14.8005 8.40689 14.2503 8.6742 13.7628C9.04084 13.0941 9.12461 12.2121 8.59534 11.6631V11.6631C8.12601 11.1762 7.34885 11.1207 6.91048 11.6356C6.02918 12.6708 5.50421 13.9668 5.50421 15.3791C5.50421 16.7946 6.03152 18.0932 6.91638 19.1296Z" fill="#00A4E0"/>
<path id="Vector_3" d="M17.389 16.3284C16.6605 16.1991 15.9777 16.6938 15.555 17.301C14.8551 18.3064 13.6203 18.9672 12.224 18.9672C12.2066 18.9672 12.1893 18.9671 12.1721 18.967C11.4887 18.96 10.778 19.284 10.5428 19.9257V19.9257C10.296 20.5987 10.6616 21.3487 11.3744 21.4249C11.6528 21.4547 11.9368 21.469 12.224 21.469C14.9153 21.469 17.2393 20.0262 18.3176 17.9388C18.6796 17.2382 18.1654 16.4663 17.389 16.3284V16.3284Z" fill="#EF4123"/>
<path id="Vector_4" d="M30.272 10.8994C30.7551 10.8994 31.1467 11.291 31.1467 11.7741V17.5331C31.1467 17.8354 31.3354 18.1056 31.6192 18.2097V18.2097C32.018 18.356 32.2044 18.8137 32.0214 19.197L31.9789 19.2859C31.7977 19.6652 31.3566 19.843 30.963 19.6954L30.3147 19.4521C30.016 19.3358 29.8027 19.1418 29.6533 18.9479C29.504 18.7346 29.3973 18.4437 29.3973 18.0558V11.7741C29.3973 11.291 29.7889 10.8994 30.272 10.8994V10.8994Z" fill="#FFCB05"/>
<path id="Vector_5" fill-rule="evenodd" clip-rule="evenodd" d="M21.6983 17.9408C21.3878 18.0637 21.0126 17.9572 20.8853 17.6485V17.6485C20.4586 16.737 20.4373 15.8061 20.8 14.914C21.2053 13.9249 21.952 13.1685 22.9333 12.7806C24.1706 12.2958 25.536 12.3927 26.7306 13.0327C27.4773 13.4206 28.0106 14.0218 28.416 14.8946C28.4433 14.969 28.4795 15.0437 28.513 15.1131V15.1131C28.5424 15.1734 28.5135 15.2448 28.4511 15.2694L21.6983 17.9408ZM23.6373 14.2352C23.4288 14.3184 23.2446 14.4236 23.0861 14.5477C22.3428 15.1296 23.2747 15.8706 24.1536 15.5262V15.5262C25.0907 15.159 25.2108 13.9189 24.2166 14.0758C24.0304 14.1052 23.8373 14.1578 23.6373 14.2352Z" fill="#00A4E0"/>
<path id="Vector_6" d="M26.5813 17.4157V17.4157C26.5323 17.3935 26.4746 17.4107 26.4426 17.454C26.2249 17.7488 25.8863 17.9904 25.4933 18.1333C24.6959 18.4493 23.9573 18.3912 23.409 17.9932C23.3716 17.966 23.3182 17.9765 23.296 18.017V18.017L22.8507 18.6241C22.5822 18.9903 22.6793 19.5046 23.104 19.6654V19.6654C24.1493 20.0533 25.216 20.0339 26.2613 19.6267C26.4407 19.5587 26.6108 19.4812 26.7714 19.3949C27.5783 18.9612 27.3663 17.888 26.5813 17.4157V17.4157Z" fill="#00A4E0"/>
<path id="Vector_7" d="M34.3777 13.9859C34.7501 14.3589 34.6913 14.9697 34.4723 15.4491C34.3639 15.6864 34.304 15.944 34.304 16.2134C34.304 16.474 34.3601 16.7237 34.4619 16.953C34.6772 17.4378 34.7466 18.057 34.3747 18.4352V18.4352C34.0555 18.7598 33.5324 18.7975 33.2428 18.4464C32.7291 17.8233 32.4266 17.0458 32.4266 16.2134C32.4266 15.3803 32.7295 14.6023 33.244 13.979C33.5336 13.6281 34.0562 13.664 34.3777 13.9859V13.9859Z" fill="#EF4123"/>
<path id="Vector_8" d="M36.544 18.2495V18.2495C36.1405 18.2495 35.7324 18.4424 35.592 18.8207L35.5659 18.8911C35.3915 19.3611 35.6547 19.8903 36.1538 19.9374C36.2832 19.9495 36.4136 19.9561 36.544 19.9561C38.1603 19.9561 39.5641 19.1067 40.2251 17.8691C40.4736 17.4038 40.1286 16.8884 39.6105 16.7898V16.7898C39.1134 16.6952 38.6422 17.0339 38.3229 17.4265C37.9165 17.9263 37.2697 18.2495 36.544 18.2495Z" fill="#EF4123"/>
<path id="Vector_9" d="M35.5594 13.5371C35.3862 13.0701 35.6373 12.5483 36.1336 12.5064C36.2696 12.495 36.4068 12.4895 36.544 12.4895C38.1637 12.4895 39.5559 13.3426 40.2215 14.5949C40.468 15.0589 40.1239 15.573 39.6068 15.6659V15.6659C39.1134 15.7546 38.6506 15.41 38.3368 15.0191C37.9356 14.5193 37.2842 14.1962 36.544 14.1962V14.1962C36.1406 14.1962 35.7324 14.0033 35.5921 13.625L35.5594 13.5371Z" fill="#EF4123"/>
</g>
</svg>
