<svg width="48" height="32" viewBox="0 0 48 32" fill="none" xmlns="http://www.w3.org/2000/svg">
<g id="elo">
<path id="Vector" d="M47.4667 4.48486C47.4667 2.27572 45.6758 0.484863 43.4667 0.484863H4.53332C2.32419 0.484863 0.533325 2.27572 0.533325 4.48486V27.5152C0.533325 29.7243 2.32419 31.5152 4.53333 31.5152H43.4667C45.6758 31.5152 47.4667 29.7243 47.4667 27.5152V4.48486Z" fill="#231F20"/>
<path id="Vector_2" d="M11.0901 11.3367C11.3194 11.9621 11.9999 12.2735 12.6658 12.258C12.6962 12.2572 12.7267 12.2569 12.7573 12.2569C14.176 12.2569 15.4083 12.9346 16.11 13.9457C16.5264 14.5456 17.2031 15.0256 17.9218 14.896V14.896C18.6892 14.7576 19.1993 13.9964 18.8466 13.3008C17.7841 11.2051 15.4553 9.75513 12.7573 9.75513C12.4829 9.75513 12.2142 9.77085 11.9502 9.80036C11.2238 9.88157 10.8385 10.6505 11.0901 11.3367V11.3367Z" fill="#FFCB05"/>
<path id="Vector_3" d="M7.44971 19.6144C7.88615 20.1256 8.65805 20.0727 9.12734 19.5915V19.5915C9.66553 19.0396 9.57699 18.145 9.20513 17.4698C8.93807 16.9849 8.78954 16.4385 8.78954 15.864C8.78954 15.2853 8.94022 14.7352 9.20752 14.2477C9.57417 13.579 9.65794 12.697 9.12867 12.1479V12.1479C8.65934 11.6611 7.88217 11.6056 7.4438 12.1205C6.5625 13.1557 6.03754 14.4516 6.03754 15.864C6.03754 17.2795 6.56485 18.578 7.44971 19.6144Z" fill="#00A4E0"/>
<path id="Vector_4" d="M17.9223 16.8133C17.1938 16.6839 16.511 17.1787 16.0884 17.7859C15.3885 18.7912 14.1536 19.4521 12.7573 19.4521C12.7399 19.4521 12.7226 19.452 12.7054 19.4518C12.022 19.4449 11.3114 19.7689 11.0761 20.4105V20.4105C10.8293 21.0835 11.1949 21.8335 11.9077 21.9098C12.1861 21.9396 12.4701 21.9539 12.7573 21.9539C15.4487 21.9539 17.7726 20.511 18.851 18.4237C19.2129 17.7231 18.6987 16.9511 17.9223 16.8133V16.8133Z" fill="#EF4123"/>
<path id="Vector_5" d="M30.8053 11.3843C31.2884 11.3843 31.68 11.7759 31.68 12.2589V18.0179C31.68 18.3203 31.8687 18.5905 32.1525 18.6946V18.6946C32.5513 18.8409 32.7378 19.2986 32.5547 19.6819L32.5122 19.7708C32.3311 20.1501 31.8899 20.3279 31.4963 20.1802L30.848 19.937C30.5493 19.8206 30.336 19.6267 30.1867 19.4328C30.0373 19.2194 29.9307 18.9285 29.9307 18.5406V12.2589C29.9307 11.7759 30.3223 11.3843 30.8053 11.3843V11.3843Z" fill="white"/>
<path id="Vector_6" fill-rule="evenodd" clip-rule="evenodd" d="M22.2316 18.4257C21.9211 18.5485 21.546 18.4421 21.4186 18.1334V18.1334C20.992 17.2219 20.9706 16.2909 21.3333 15.3988C21.7386 14.4097 22.4853 13.6534 23.4666 13.2655C24.704 12.7806 26.0693 12.8776 27.264 13.5176C28.0106 13.9055 28.544 14.5067 28.9493 15.3794C28.9766 15.4539 29.0129 15.5286 29.0464 15.598V15.598C29.0757 15.6583 29.0468 15.7296 28.9844 15.7543L22.2316 18.4257ZM24.1706 14.72C23.9622 14.8032 23.778 14.9085 23.6194 15.0326C22.8761 15.6144 23.808 16.3555 24.6869 16.0111V16.0111C25.624 15.6439 25.7442 14.4038 24.7499 14.5606C24.5637 14.59 24.3706 14.6427 24.1706 14.72Z" fill="white"/>
<path id="Vector_7" d="M27.1146 17.9006V17.9006C27.0656 17.8783 27.008 17.8955 26.976 17.9389C26.7582 18.2337 26.4196 18.4753 26.0266 18.6182C25.2293 18.9342 24.4907 18.8761 23.9423 18.478C23.9049 18.4509 23.8516 18.4613 23.8293 18.5018V18.5018L23.384 19.109C23.1155 19.4752 23.2126 19.9894 23.6373 20.1503V20.1503C24.6826 20.5382 25.7493 20.5188 26.7946 20.1115C26.9741 20.0435 27.1442 19.9661 27.3047 19.8798C28.1116 19.4461 27.8996 18.3729 27.1146 17.9006V17.9006Z" fill="white"/>
<path id="Vector_8" d="M34.9111 14.4708C35.2835 14.8438 35.2246 15.4546 35.0056 15.934C34.8972 16.1712 34.8373 16.4289 34.8373 16.6982C34.8373 16.9589 34.8934 17.2086 34.9953 17.4379C35.2106 17.9226 35.2799 18.5419 34.908 18.9201V18.9201C34.5889 19.2446 34.0657 19.2824 33.7762 18.9312C33.2624 18.3081 32.96 17.5307 32.96 16.6982C32.96 15.8652 33.2628 15.0872 33.7773 14.4639C34.0669 14.1129 34.5896 14.1488 34.9111 14.4708V14.4708Z" fill="white"/>
<path id="Vector_9" d="M37.0773 18.7343V18.7343C36.6738 18.7343 36.2657 18.9273 36.1254 19.3056L36.0993 19.3759C35.9248 19.846 36.188 20.3752 36.6871 20.4222C36.8165 20.4344 36.9469 20.441 37.0773 20.441C38.6936 20.441 40.0975 19.5915 40.7585 18.3539C41.007 17.8887 40.662 17.3733 40.1438 17.2747V17.2747C39.6467 17.1801 39.1755 17.5188 38.8563 17.9113C38.4498 18.4111 37.8031 18.7343 37.0773 18.7343Z" fill="white"/>
<path id="Vector_10" d="M36.0928 14.0219C35.9195 13.555 36.1706 13.0332 36.6669 12.9913C36.8029 12.9798 36.9401 12.9744 37.0773 12.9744C38.697 12.9744 40.0892 13.8274 40.7548 15.0798C41.0014 15.5437 40.6572 16.0578 40.1401 16.1508V16.1508C39.6467 16.2394 39.184 15.8948 38.8701 15.504C38.4689 15.0042 37.8176 14.681 37.0773 14.681V14.681C36.6739 14.681 36.2658 14.4881 36.1254 14.1099L36.0928 14.0219Z" fill="white"/>
</g>
</svg>
