<svg width="48" height="32" viewBox="0 0 48 32" fill="none" xmlns="http://www.w3.org/2000/svg">
<path d="M47.4667 4.48487C47.4667 2.27573 45.6758 0.484863 43.4667 0.484863H4.53332C2.32419 0.484863 0.533325 2.27572 0.533325 4.48486V27.5152C0.533325 29.7243 2.32419 31.5152 4.53333 31.5152H43.4667C45.6758 31.5152 47.4667 29.7243 47.4667 27.5152V4.48487Z" fill="#C9C9CD"/>
<path d="M11.2 22.7879C11.2 22.2524 10.7658 21.8182 10.2303 21.8182H5.76969C5.23414 21.8182 4.79999 22.2524 4.79999 22.7879V22.7879C4.79999 23.3235 5.23414 23.7576 5.76968 23.7576H10.2303C10.7658 23.7576 11.2 23.3235 11.2 22.7879V22.7879Z" fill="white"/>
<path d="M21.8667 22.7879C21.8667 22.2524 21.4325 21.8182 20.897 21.8182H16.4364C15.9008 21.8182 15.4667 22.2524 15.4667 22.7879V22.7879C15.4667 23.3235 15.9008 23.7576 16.4364 23.7576H20.897C21.4325 23.7576 21.8667 23.3235 21.8667 22.7879V22.7879Z" fill="white"/>
<path d="M32.5333 22.7879C32.5333 22.2524 32.0992 21.8182 31.5636 21.8182H27.103C26.5674 21.8182 26.1333 22.2524 26.1333 22.7879V22.7879C26.1333 23.3235 26.5674 23.7576 27.103 23.7576H31.5636C32.0992 23.7576 32.5333 23.3235 32.5333 22.7879V22.7879Z" fill="white"/>
<path d="M43.2 22.7879C43.2 22.2524 42.7658 21.8182 42.2303 21.8182H37.7697C37.2341 21.8182 36.8 22.2524 36.8 22.7879V22.7879C36.8 23.3235 37.2341 23.7576 37.7697 23.7576H42.2303C42.7658 23.7576 43.2 23.3235 43.2 22.7879V22.7879Z" fill="white"/>
<path d="M43.2 8.24244C43.2 6.10024 41.4634 4.36365 39.3212 4.36365H36.4121C34.2699 4.36365 32.5333 6.10024 32.5333 8.24244V8.24244C32.5333 10.3846 34.2699 12.1212 36.4121 12.1212H39.3212C41.4634 12.1212 43.2 10.3846 43.2 8.24244V8.24244Z" fill="#ABABB3"/>
</svg>
